# xmcd
#
# Track frame offsets: 
#        150
#        16053
#        31954
#        45103
#        58808
#        79180
#        97015
#        113894
#        130287
#        150054
#        162513
#        186038
#        198248
#        215335
#        234173
#        253244
#        270054
#        289296
#        310344
#        326112
#
# Disc length: 4556 seconds
#
# Revision: 0
# Processed by: cddbd v1.5.2PL0 Copyright (c) Steve Scherf et al.
# Submitted via: ExactAudioCopy v0.99pb4
#
DISCID=0811ca14
DTITLE=Bonnie Raitt - Her Blues
DYEAR=1900
DGENRE=Blues
TTITLE0=Bluebird
TTITLE1=Big Road
TTITLE2=Danger Heartbreak Dead Ahead
TTITLE3=If You Gotta Make A Fool Of Somebody
TTITLE4=Give It Up Or Let Me Go
TTITLE5=Runaway
TTITLE6=Under The Falling Sky
TTITLE7=I Ain't Blue
TTITLE8=Mighty Tight Woman
TTITLE9=Sweet and Shiny
TTITLE10=Love Me Like A Man
TTITLE11=Walking Blues
TTITLE12=Sugar Mama
TTITLE13=Women Be Wise
TTITLE14=You Told Me Baby
TTITLE15=I Know
TTITLE16=About To Make Me Leave Home
TTITLE17=I Feel The Same
TTITLE18=You Got To Know How
TTITLE19=Everybody's Crying Mercy
EXTD=
EXTT0=
EXTT1=
EXTT2=
EXTT3=
EXTT4=
EXTT5=
EXTT6=
EXTT7=
EXTT8=
EXTT9=
EXTT10=
EXTT11=
EXTT12=
EXTT13=
EXTT14=
EXTT15=
EXTT16=
EXTT17=
EXTT18=
EXTT19=
PLAYORDER=
